<?xml version="1.0" encoding="UTF-8"?>
<svg id="Layer_2" data-name="Layer 2" xmlns="http://www.w3.org/2000/svg" xmlns:xlink="http://www.w3.org/1999/xlink" viewBox="0 0 620.6 404">
  <defs>
    <style>
      .cls-1 {
        fill: url(#linear-gradient);
        fill-rule: evenodd;
      }
    </style>
    <linearGradient id="linear-gradient" x1="20.73" y1="202" x2="388.8" y2="202" gradientTransform="translate(409.53) rotate(-180) scale(1 -1)" gradientUnits="userSpaceOnUse">
      <stop offset=".08" stop-color="#9945ff"/>
      <stop offset=".3" stop-color="#8752f3"/>
      <stop offset=".5" stop-color="#5497d5"/>
      <stop offset=".6" stop-color="#43b4ca"/>
      <stop offset=".72" stop-color="#28e0b9"/>
      <stop offset=".97" stop-color="#19fb9b"/>
    </linearGradient>
  </defs>
  <path class="cls-1" d="m148.95,89.21c-3.54,0-6.41,2.87-6.41,6.41,0,3.54,2.87,6.41,6.41,6.41s6.41-2.87,6.41-6.41c0-3.54-2.87-6.41-6.41-6.41m174.56,205.04c-14.24-43.78-54.38-31.94-97.83-47.5-30-10.74-54.77-30.06-67.76-68.85-1.08-3.22-2.06-6.37-3.02-9.45,14.1,19.02,47.26,55.66,98.73,64.88,70.37,12.6,69.87,60.93,69.87,60.93Zm-21.84-24.4c.29,38.21-26.47,52.44-25.07,89.29-42.31-34.6,1.61-55.28,25.07-89.29Zm6.68,6.69c8.91,12.97,10.23,28.07,9.25,37.57-2.24,21.63-12.82,42.36-13.63,69.54-43.32-26.67,6.06-61.53,4.38-107.12Zm6.11-64.27c65.52,55.94,43.21,134.22,26.67,191.72-48.59-46.74,1.94-92.1-16.74-150.55,9.9,9.16,15.71,31.31,18.57,50.3,1.31-33.07-5.89-65.09-28.5-91.47Zm59.08-192.04c20.39,32.96,25.78,84.97-18.32,99.16-41.41,13.32-103.69,4.31-137.93,25.38,37.37-44.65,162.99-38.94,156.25-124.54Zm.39,95.69c2.29,39.51-29.8,46.38-63.97,43.95,15.93,7.42,29.8,9.38,40.87,8.99-23.77,22.75-54.99,17.33-80.2,1.36,0,0,11.15,12.01,39.17,25.92-39.1,11.1-65.29-2.2-82.32-34.12,49.62-40.81,116.29-10.57,146.45-46.1ZM319.11,0c26.38,30.92,26.88,60.02,4.62,78.65-27.81,23.28-66.83,27.39-98.42,46.67,26.81-38.25,108-54.52,93.81-125.32ZM113.54,93.74c17.64-25.88,54.63-24.88,76.11-5.13,9.43,8.68,16.13,18.24,22.86,28.4-13.7-11.65-28.77-20.31-28.77-20.31,20.12,37.14-7.75,52.18-33.06,58.28-8.58-25.7-20.43-44.91-73.13-52.55-21.54-3.12-56.81-7.18-56.81-7.18l92.81-1.5Z"/>
</svg>